<?xml version="1.0" standalone="no"?><!DOCTYPE svg PUBLIC "-//W3C//DTD SVG 1.1//EN" "http://www.w3.org/Graphics/SVG/1.1/DTD/svg11.dtd"><svg t="1720683686653" class="icon" viewBox="0 0 1024 1024" version="1.1" xmlns="http://www.w3.org/2000/svg" p-id="14258" xmlns:xlink="http://www.w3.org/1999/xlink" width="200" height="200"><path d="M915.648 111.2H332.8a44.8 44.8 0 0 0-44.832 44.832v358.656c0 24.768 20.096 44.832 44.832 44.832h156.928l134.496 134.496 134.496-134.496h156.928a44.8 44.8 0 0 0 44.832-44.832V156.032c0-24.768-20.096-44.832-44.832-44.832z m0 403.52H740.16l-115.936 115.936-115.936-115.936H332.8V156.064h582.848v358.656z m-224.16 175.488v48.704h-175.488l-115.936 115.904-115.936-115.904H108.64V380.224h134.496v-44.832H108.64a44.8 44.8 0 0 0-44.832 44.832v358.688c0 24.768 20.096 44.832 44.832 44.832h156.896l134.496 134.496 134.496-134.496h156.928a44.8 44.8 0 0 0 44.832-44.832v-93.536l-44.832 44.832z" fill="#0a66c2" p-id="14259"></path></svg>